<mxfile host="drawio-plugin" modified="2021-12-15T07:10:02.449Z" agent="5.0 (Windows NT 6.2; Win64; x64) AppleWebKit/537.36 (KHTML, like Gecko) Chrome/89.0.4389.114 Safari/537.36" etag="3f5elJo4u7DgrdJXjwfT" version="14.7.4" type="embed" pages="4"><diagram id="RlmgxC3qNl6dpa3QdAQR" name="digraph1"><mxGraphModel dx="754" dy="566" grid="1" gridSize="10" guides="1" tooltips="1" connect="1" arrows="1" fold="1" page="1" pageScale="1" pageWidth="827" pageHeight="1169" math="0" shadow="0"><root><mxCell id="0"/><mxCell id="1" parent="0"/><mxCell id="YiOear8wiFDO5ZEr10wr-10" style="edgeStyle=orthogonalEdgeStyle;rounded=0;orthogonalLoop=1;jettySize=auto;html=1;entryX=0.5;entryY=0;entryDx=0;entryDy=0;" parent="1" source="YiOear8wiFDO5ZEr10wr-1" target="YiOear8wiFDO5ZEr10wr-4" edge="1"><mxGeometry relative="1" as="geometry"/></mxCell><mxCell id="YiOear8wiFDO5ZEr10wr-1" value="0" style="ellipse;whiteSpace=wrap;html=1;aspect=fixed;" parent="1" vertex="1"><mxGeometry x="180" y="140" width="50" height="50" as="geometry"/></mxCell><mxCell id="YiOear8wiFDO5ZEr10wr-19" style="edgeStyle=none;rounded=0;orthogonalLoop=1;jettySize=auto;html=1;exitX=1;exitY=1;exitDx=0;exitDy=0;" parent="1" source="YiOear8wiFDO5ZEr10wr-2" target="YiOear8wiFDO5ZEr10wr-6" edge="1"><mxGeometry relative="1" as="geometry"/></mxCell><mxCell id="YiOear8wiFDO5ZEr10wr-2" value="1" style="ellipse;whiteSpace=wrap;html=1;aspect=fixed;" parent="1" vertex="1"><mxGeometry x="310" y="140" width="50" height="50" as="geometry"/></mxCell><mxCell id="YiOear8wiFDO5ZEr10wr-17" style="edgeStyle=none;rounded=0;orthogonalLoop=1;jettySize=auto;html=1;entryX=1;entryY=0.5;entryDx=0;entryDy=0;" parent="1" source="YiOear8wiFDO5ZEr10wr-3" target="YiOear8wiFDO5ZEr10wr-2" edge="1"><mxGeometry relative="1" as="geometry"/></mxCell><mxCell id="YiOear8wiFDO5ZEr10wr-3" value="2" style="ellipse;whiteSpace=wrap;html=1;aspect=fixed;" parent="1" vertex="1"><mxGeometry x="450" y="140" width="50" height="50" as="geometry"/></mxCell><mxCell id="YiOear8wiFDO5ZEr10wr-11" style="edgeStyle=orthogonalEdgeStyle;rounded=0;orthogonalLoop=1;jettySize=auto;html=1;entryX=0.5;entryY=0;entryDx=0;entryDy=0;" parent="1" source="YiOear8wiFDO5ZEr10wr-4" target="YiOear8wiFDO5ZEr10wr-7" edge="1"><mxGeometry relative="1" as="geometry"/></mxCell><mxCell id="YiOear8wiFDO5ZEr10wr-13" style="rounded=0;orthogonalLoop=1;jettySize=auto;html=1;entryX=0;entryY=0;entryDx=0;entryDy=0;" parent="1" source="YiOear8wiFDO5ZEr10wr-4" target="YiOear8wiFDO5ZEr10wr-8" edge="1"><mxGeometry relative="1" as="geometry"/></mxCell><mxCell id="YiOear8wiFDO5ZEr10wr-4" value="3" style="ellipse;whiteSpace=wrap;html=1;aspect=fixed;" parent="1" vertex="1"><mxGeometry x="180" y="270" width="50" height="50" as="geometry"/></mxCell><mxCell id="YiOear8wiFDO5ZEr10wr-5" value="4" style="ellipse;whiteSpace=wrap;html=1;aspect=fixed;" parent="1" vertex="1"><mxGeometry x="310" y="270" width="50" height="50" as="geometry"/></mxCell><mxCell id="YiOear8wiFDO5ZEr10wr-15" style="edgeStyle=none;rounded=0;orthogonalLoop=1;jettySize=auto;html=1;entryX=0.5;entryY=0;entryDx=0;entryDy=0;" parent="1" source="YiOear8wiFDO5ZEr10wr-6" target="YiOear8wiFDO5ZEr10wr-9" edge="1"><mxGeometry relative="1" as="geometry"/></mxCell><mxCell id="YiOear8wiFDO5ZEr10wr-16" style="edgeStyle=none;rounded=0;orthogonalLoop=1;jettySize=auto;html=1;entryX=0.5;entryY=1;entryDx=0;entryDy=0;" parent="1" source="YiOear8wiFDO5ZEr10wr-6" target="YiOear8wiFDO5ZEr10wr-3" edge="1"><mxGeometry relative="1" as="geometry"/></mxCell><mxCell id="YiOear8wiFDO5ZEr10wr-6" value="5" style="ellipse;whiteSpace=wrap;html=1;aspect=fixed;" parent="1" vertex="1"><mxGeometry x="450" y="270" width="50" height="50" as="geometry"/></mxCell><mxCell id="YiOear8wiFDO5ZEr10wr-12" style="edgeStyle=orthogonalEdgeStyle;rounded=0;orthogonalLoop=1;jettySize=auto;html=1;entryX=0;entryY=0.5;entryDx=0;entryDy=0;" parent="1" source="YiOear8wiFDO5ZEr10wr-7" target="YiOear8wiFDO5ZEr10wr-8" edge="1"><mxGeometry relative="1" as="geometry"/></mxCell><mxCell id="YiOear8wiFDO5ZEr10wr-7" value="6" style="ellipse;whiteSpace=wrap;html=1;aspect=fixed;" parent="1" vertex="1"><mxGeometry x="180" y="400" width="50" height="50" as="geometry"/></mxCell><mxCell id="YiOear8wiFDO5ZEr10wr-8" value="7" style="ellipse;whiteSpace=wrap;html=1;aspect=fixed;" parent="1" vertex="1"><mxGeometry x="310" y="400" width="50" height="50" as="geometry"/></mxCell><mxCell id="YiOear8wiFDO5ZEr10wr-14" style="edgeStyle=none;rounded=0;orthogonalLoop=1;jettySize=auto;html=1;entryX=1;entryY=0.5;entryDx=0;entryDy=0;" parent="1" source="YiOear8wiFDO5ZEr10wr-9" target="YiOear8wiFDO5ZEr10wr-8" edge="1"><mxGeometry relative="1" as="geometry"/></mxCell><mxCell id="YiOear8wiFDO5ZEr10wr-9" value="8" style="ellipse;whiteSpace=wrap;html=1;aspect=fixed;" parent="1" vertex="1"><mxGeometry x="450" y="400" width="50" height="50" as="geometry"/></mxCell></root></mxGraphModel></diagram><diagram id="PN6J-3cUDVq6KzX81xdm" name="无向图-DFS"><mxGraphModel dx="754" dy="566" grid="1" gridSize="10" guides="1" tooltips="1" connect="1" arrows="1" fold="1" page="1" pageScale="1" pageWidth="827" pageHeight="1169" math="0" shadow="0"><root><mxCell id="qYHEGhklsvZ3XOmUtH0p-0"/><mxCell id="qYHEGhklsvZ3XOmUtH0p-1" parent="qYHEGhklsvZ3XOmUtH0p-0"/><mxCell id="XDcwSHwaO0lnT_2oKsYs-18" style="edgeStyle=none;rounded=0;orthogonalLoop=1;jettySize=auto;html=1;entryX=0;entryY=0.5;entryDx=0;entryDy=0;startArrow=none;startFill=0;endArrow=none;endFill=0;" parent="qYHEGhklsvZ3XOmUtH0p-1" source="XDcwSHwaO0lnT_2oKsYs-1" target="XDcwSHwaO0lnT_2oKsYs-3" edge="1"><mxGeometry relative="1" as="geometry"/></mxCell><mxCell id="XDcwSHwaO0lnT_2oKsYs-19" style="edgeStyle=none;rounded=0;orthogonalLoop=1;jettySize=auto;html=1;entryX=0.5;entryY=0;entryDx=0;entryDy=0;startArrow=none;startFill=0;endArrow=none;endFill=0;" parent="qYHEGhklsvZ3XOmUtH0p-1" source="XDcwSHwaO0lnT_2oKsYs-1" target="XDcwSHwaO0lnT_2oKsYs-8" edge="1"><mxGeometry relative="1" as="geometry"/></mxCell><mxCell id="XDcwSHwaO0lnT_2oKsYs-1" value="0" style="ellipse;whiteSpace=wrap;html=1;aspect=fixed;" parent="qYHEGhklsvZ3XOmUtH0p-1" vertex="1"><mxGeometry x="180" y="140" width="50" height="50" as="geometry"/></mxCell><mxCell id="XDcwSHwaO0lnT_2oKsYs-21" style="edgeStyle=none;rounded=0;orthogonalLoop=1;jettySize=auto;html=1;exitX=0;exitY=1;exitDx=0;exitDy=0;entryX=1;entryY=0;entryDx=0;entryDy=0;startArrow=none;startFill=0;endArrow=none;endFill=0;" parent="qYHEGhklsvZ3XOmUtH0p-1" source="XDcwSHwaO0lnT_2oKsYs-3" target="XDcwSHwaO0lnT_2oKsYs-8" edge="1"><mxGeometry relative="1" as="geometry"/></mxCell><mxCell id="XDcwSHwaO0lnT_2oKsYs-3" value="1" style="ellipse;whiteSpace=wrap;html=1;aspect=fixed;" parent="qYHEGhklsvZ3XOmUtH0p-1" vertex="1"><mxGeometry x="310" y="140" width="50" height="50" as="geometry"/></mxCell><mxCell id="XDcwSHwaO0lnT_2oKsYs-24" style="edgeStyle=none;rounded=0;orthogonalLoop=1;jettySize=auto;html=1;entryX=0.5;entryY=0;entryDx=0;entryDy=0;startArrow=none;startFill=0;endArrow=none;endFill=0;" parent="qYHEGhklsvZ3XOmUtH0p-1" source="XDcwSHwaO0lnT_2oKsYs-5" target="XDcwSHwaO0lnT_2oKsYs-12" edge="1"><mxGeometry relative="1" as="geometry"/></mxCell><mxCell id="XDcwSHwaO0lnT_2oKsYs-5" value="2" style="ellipse;whiteSpace=wrap;html=1;aspect=fixed;" parent="qYHEGhklsvZ3XOmUtH0p-1" vertex="1"><mxGeometry x="450" y="140" width="50" height="50" as="geometry"/></mxCell><mxCell id="XDcwSHwaO0lnT_2oKsYs-20" style="edgeStyle=none;rounded=0;orthogonalLoop=1;jettySize=auto;html=1;entryX=0.5;entryY=0;entryDx=0;entryDy=0;startArrow=none;startFill=0;endArrow=none;endFill=0;" parent="qYHEGhklsvZ3XOmUtH0p-1" source="XDcwSHwaO0lnT_2oKsYs-8" target="XDcwSHwaO0lnT_2oKsYs-14" edge="1"><mxGeometry relative="1" as="geometry"/></mxCell><mxCell id="XDcwSHwaO0lnT_2oKsYs-8" value="3" style="ellipse;whiteSpace=wrap;html=1;aspect=fixed;" parent="qYHEGhklsvZ3XOmUtH0p-1" vertex="1"><mxGeometry x="180" y="270" width="50" height="50" as="geometry"/></mxCell><mxCell id="XDcwSHwaO0lnT_2oKsYs-22" style="edgeStyle=none;rounded=0;orthogonalLoop=1;jettySize=auto;html=1;entryX=0.5;entryY=0;entryDx=0;entryDy=0;startArrow=none;startFill=0;endArrow=none;endFill=0;" parent="qYHEGhklsvZ3XOmUtH0p-1" source="XDcwSHwaO0lnT_2oKsYs-9" target="XDcwSHwaO0lnT_2oKsYs-15" edge="1"><mxGeometry relative="1" as="geometry"/></mxCell><mxCell id="XDcwSHwaO0lnT_2oKsYs-23" style="edgeStyle=none;rounded=0;orthogonalLoop=1;jettySize=auto;html=1;exitX=1;exitY=1;exitDx=0;exitDy=0;entryX=0;entryY=0;entryDx=0;entryDy=0;startArrow=none;startFill=0;endArrow=none;endFill=0;" parent="qYHEGhklsvZ3XOmUtH0p-1" source="XDcwSHwaO0lnT_2oKsYs-9" target="XDcwSHwaO0lnT_2oKsYs-17" edge="1"><mxGeometry relative="1" as="geometry"/></mxCell><mxCell id="XDcwSHwaO0lnT_2oKsYs-9" value="4" style="ellipse;whiteSpace=wrap;html=1;aspect=fixed;" parent="qYHEGhklsvZ3XOmUtH0p-1" vertex="1"><mxGeometry x="310" y="270" width="50" height="50" as="geometry"/></mxCell><mxCell id="XDcwSHwaO0lnT_2oKsYs-12" value="5" style="ellipse;whiteSpace=wrap;html=1;aspect=fixed;" parent="qYHEGhklsvZ3XOmUtH0p-1" vertex="1"><mxGeometry x="450" y="270" width="50" height="50" as="geometry"/></mxCell><mxCell id="XDcwSHwaO0lnT_2oKsYs-14" value="6" style="ellipse;whiteSpace=wrap;html=1;aspect=fixed;" parent="qYHEGhklsvZ3XOmUtH0p-1" vertex="1"><mxGeometry x="180" y="400" width="50" height="50" as="geometry"/></mxCell><mxCell id="XDcwSHwaO0lnT_2oKsYs-15" value="7" style="ellipse;whiteSpace=wrap;html=1;aspect=fixed;" parent="qYHEGhklsvZ3XOmUtH0p-1" vertex="1"><mxGeometry x="310" y="400" width="50" height="50" as="geometry"/></mxCell><mxCell id="XDcwSHwaO0lnT_2oKsYs-17" value="8" style="ellipse;whiteSpace=wrap;html=1;aspect=fixed;" parent="qYHEGhklsvZ3XOmUtH0p-1" vertex="1"><mxGeometry x="450" y="400" width="50" height="50" as="geometry"/></mxCell></root></mxGraphModel></diagram><diagram id="XqtaAxCrMm37ADvpGtUe" name="Bipartite"><mxGraphModel dx="754" dy="566" grid="1" gridSize="10" guides="1" tooltips="1" connect="1" arrows="1" fold="1" page="1" pageScale="1" pageWidth="827" pageHeight="1169" math="0" shadow="0"><root><mxCell id="XsqwARJMU0s4jP7rleR2-0"/><mxCell id="XsqwARJMU0s4jP7rleR2-1" parent="XsqwARJMU0s4jP7rleR2-0"/><mxCell id="Z5Aat3luIzhw76UPRCKL-1" style="edgeStyle=none;rounded=0;orthogonalLoop=1;jettySize=auto;html=1;entryX=0.5;entryY=0;entryDx=0;entryDy=0;startArrow=none;startFill=0;endArrow=none;endFill=0;" parent="XsqwARJMU0s4jP7rleR2-1" source="Z5Aat3luIzhw76UPRCKL-2" target="Z5Aat3luIzhw76UPRCKL-5" edge="1"><mxGeometry relative="1" as="geometry"/></mxCell><mxCell id="Z5Aat3luIzhw76UPRCKL-7" style="edgeStyle=orthogonalEdgeStyle;rounded=0;orthogonalLoop=1;jettySize=auto;html=1;entryX=0;entryY=0.5;entryDx=0;entryDy=0;endArrow=none;endFill=0;" parent="XsqwARJMU0s4jP7rleR2-1" source="Z5Aat3luIzhw76UPRCKL-2" target="Z5Aat3luIzhw76UPRCKL-4" edge="1"><mxGeometry relative="1" as="geometry"/></mxCell><mxCell id="Z5Aat3luIzhw76UPRCKL-2" value="0" style="ellipse;whiteSpace=wrap;html=1;aspect=fixed;" parent="XsqwARJMU0s4jP7rleR2-1" vertex="1"><mxGeometry x="180" y="140" width="50" height="50" as="geometry"/></mxCell><mxCell id="Z5Aat3luIzhw76UPRCKL-8" style="edgeStyle=orthogonalEdgeStyle;rounded=0;orthogonalLoop=1;jettySize=auto;html=1;entryX=0.5;entryY=0;entryDx=0;entryDy=0;endArrow=none;endFill=0;" parent="XsqwARJMU0s4jP7rleR2-1" source="Z5Aat3luIzhw76UPRCKL-4" target="Z5Aat3luIzhw76UPRCKL-6" edge="1"><mxGeometry relative="1" as="geometry"/></mxCell><mxCell id="Z5Aat3luIzhw76UPRCKL-4" value="1" style="ellipse;whiteSpace=wrap;html=1;aspect=fixed;" parent="XsqwARJMU0s4jP7rleR2-1" vertex="1"><mxGeometry x="310" y="140" width="50" height="50" as="geometry"/></mxCell><mxCell id="Z5Aat3luIzhw76UPRCKL-5" value="2" style="ellipse;whiteSpace=wrap;html=1;aspect=fixed;" parent="XsqwARJMU0s4jP7rleR2-1" vertex="1"><mxGeometry x="180" y="270" width="50" height="50" as="geometry"/></mxCell><mxCell id="Z5Aat3luIzhw76UPRCKL-9" style="edgeStyle=orthogonalEdgeStyle;rounded=0;orthogonalLoop=1;jettySize=auto;html=1;entryX=1;entryY=0.5;entryDx=0;entryDy=0;endArrow=none;endFill=0;" parent="XsqwARJMU0s4jP7rleR2-1" source="Z5Aat3luIzhw76UPRCKL-6" target="Z5Aat3luIzhw76UPRCKL-5" edge="1"><mxGeometry relative="1" as="geometry"/></mxCell><mxCell id="Z5Aat3luIzhw76UPRCKL-6" value="3" style="ellipse;whiteSpace=wrap;html=1;aspect=fixed;" parent="XsqwARJMU0s4jP7rleR2-1" vertex="1"><mxGeometry x="310" y="270" width="50" height="50" as="geometry"/></mxCell><mxCell id="Z5Aat3luIzhw76UPRCKL-10" style="edgeStyle=none;rounded=0;orthogonalLoop=1;jettySize=auto;html=1;entryX=0.5;entryY=0;entryDx=0;entryDy=0;startArrow=none;startFill=0;endArrow=none;endFill=0;" parent="XsqwARJMU0s4jP7rleR2-1" source="Z5Aat3luIzhw76UPRCKL-12" target="Z5Aat3luIzhw76UPRCKL-15" edge="1"><mxGeometry relative="1" as="geometry"/></mxCell><mxCell id="Z5Aat3luIzhw76UPRCKL-11" style="edgeStyle=orthogonalEdgeStyle;rounded=0;orthogonalLoop=1;jettySize=auto;html=1;entryX=0;entryY=0.5;entryDx=0;entryDy=0;endArrow=none;endFill=0;" parent="XsqwARJMU0s4jP7rleR2-1" source="Z5Aat3luIzhw76UPRCKL-12" target="Z5Aat3luIzhw76UPRCKL-14" edge="1"><mxGeometry relative="1" as="geometry"/></mxCell><mxCell id="Z5Aat3luIzhw76UPRCKL-12" value="0" style="ellipse;whiteSpace=wrap;html=1;aspect=fixed;" parent="XsqwARJMU0s4jP7rleR2-1" vertex="1"><mxGeometry x="180" y="420" width="50" height="50" as="geometry"/></mxCell><mxCell id="Z5Aat3luIzhw76UPRCKL-13" style="edgeStyle=orthogonalEdgeStyle;rounded=0;orthogonalLoop=1;jettySize=auto;html=1;entryX=0.5;entryY=0;entryDx=0;entryDy=0;endArrow=none;endFill=0;" parent="XsqwARJMU0s4jP7rleR2-1" source="Z5Aat3luIzhw76UPRCKL-14" target="Z5Aat3luIzhw76UPRCKL-17" edge="1"><mxGeometry relative="1" as="geometry"/></mxCell><mxCell id="Z5Aat3luIzhw76UPRCKL-18" style="rounded=0;orthogonalLoop=1;jettySize=auto;html=1;exitX=0;exitY=1;exitDx=0;exitDy=0;entryX=1;entryY=0;entryDx=0;entryDy=0;endArrow=none;endFill=0;" parent="XsqwARJMU0s4jP7rleR2-1" source="Z5Aat3luIzhw76UPRCKL-14" target="Z5Aat3luIzhw76UPRCKL-15" edge="1"><mxGeometry relative="1" as="geometry"/></mxCell><mxCell id="Z5Aat3luIzhw76UPRCKL-14" value="1" style="ellipse;whiteSpace=wrap;html=1;aspect=fixed;" parent="XsqwARJMU0s4jP7rleR2-1" vertex="1"><mxGeometry x="310" y="420" width="50" height="50" as="geometry"/></mxCell><mxCell id="Z5Aat3luIzhw76UPRCKL-15" value="2" style="ellipse;whiteSpace=wrap;html=1;aspect=fixed;" parent="XsqwARJMU0s4jP7rleR2-1" vertex="1"><mxGeometry x="180" y="550" width="50" height="50" as="geometry"/></mxCell><mxCell id="Z5Aat3luIzhw76UPRCKL-16" style="edgeStyle=orthogonalEdgeStyle;rounded=0;orthogonalLoop=1;jettySize=auto;html=1;entryX=1;entryY=0.5;entryDx=0;entryDy=0;endArrow=none;endFill=0;" parent="XsqwARJMU0s4jP7rleR2-1" source="Z5Aat3luIzhw76UPRCKL-17" target="Z5Aat3luIzhw76UPRCKL-15" edge="1"><mxGeometry relative="1" as="geometry"/></mxCell><mxCell id="Z5Aat3luIzhw76UPRCKL-17" value="3" style="ellipse;whiteSpace=wrap;html=1;aspect=fixed;" parent="XsqwARJMU0s4jP7rleR2-1" vertex="1"><mxGeometry x="310" y="550" width="50" height="50" as="geometry"/></mxCell><mxCell id="Z5Aat3luIzhw76UPRCKL-19" style="edgeStyle=none;rounded=0;orthogonalLoop=1;jettySize=auto;html=1;entryX=0.5;entryY=0;entryDx=0;entryDy=0;startArrow=none;startFill=0;endArrow=none;endFill=0;" parent="XsqwARJMU0s4jP7rleR2-1" source="Z5Aat3luIzhw76UPRCKL-21" target="Z5Aat3luIzhw76UPRCKL-24" edge="1"><mxGeometry relative="1" as="geometry"/></mxCell><mxCell id="Z5Aat3luIzhw76UPRCKL-20" style="edgeStyle=orthogonalEdgeStyle;rounded=0;orthogonalLoop=1;jettySize=auto;html=1;entryX=0;entryY=0.5;entryDx=0;entryDy=0;endArrow=none;endFill=0;" parent="XsqwARJMU0s4jP7rleR2-1" source="Z5Aat3luIzhw76UPRCKL-21" target="Z5Aat3luIzhw76UPRCKL-23" edge="1"><mxGeometry relative="1" as="geometry"/></mxCell><mxCell id="Z5Aat3luIzhw76UPRCKL-27" style="edgeStyle=none;rounded=0;orthogonalLoop=1;jettySize=auto;html=1;exitX=1;exitY=1;exitDx=0;exitDy=0;entryX=0;entryY=0;entryDx=0;entryDy=0;endArrow=none;endFill=0;" parent="XsqwARJMU0s4jP7rleR2-1" source="Z5Aat3luIzhw76UPRCKL-21" target="Z5Aat3luIzhw76UPRCKL-26" edge="1"><mxGeometry relative="1" as="geometry"/></mxCell><mxCell id="Z5Aat3luIzhw76UPRCKL-21" value="0" style="ellipse;whiteSpace=wrap;html=1;aspect=fixed;" parent="XsqwARJMU0s4jP7rleR2-1" vertex="1"><mxGeometry x="490" y="140" width="50" height="50" as="geometry"/></mxCell><mxCell id="Z5Aat3luIzhw76UPRCKL-23" value="1" style="ellipse;whiteSpace=wrap;html=1;aspect=fixed;" parent="XsqwARJMU0s4jP7rleR2-1" vertex="1"><mxGeometry x="620" y="140" width="50" height="50" as="geometry"/></mxCell><mxCell id="Z5Aat3luIzhw76UPRCKL-24" value="2" style="ellipse;whiteSpace=wrap;html=1;aspect=fixed;" parent="XsqwARJMU0s4jP7rleR2-1" vertex="1"><mxGeometry x="490" y="270" width="50" height="50" as="geometry"/></mxCell><mxCell id="Z5Aat3luIzhw76UPRCKL-26" value="3" style="ellipse;whiteSpace=wrap;html=1;aspect=fixed;" parent="XsqwARJMU0s4jP7rleR2-1" vertex="1"><mxGeometry x="620" y="270" width="50" height="50" as="geometry"/></mxCell></root></mxGraphModel></diagram><diagram id="WtGyah5SHnvD1iVylQQb" name="negative-cycle"><mxGraphModel dx="754" dy="566" grid="1" gridSize="10" guides="1" tooltips="1" connect="1" arrows="1" fold="1" page="1" pageScale="1" pageWidth="827" pageHeight="1169" math="0" shadow="0"><root><mxCell id="Ct5_iY6TGk_AIZCy85Y_-0"/><mxCell id="Ct5_iY6TGk_AIZCy85Y_-1" parent="Ct5_iY6TGk_AIZCy85Y_-0"/><mxCell id="0GsFUnJgfykosFsevX-u-8" style="rounded=0;orthogonalLoop=1;jettySize=auto;html=1;entryX=0;entryY=0;entryDx=0;entryDy=0;fontSize=15;" parent="Ct5_iY6TGk_AIZCy85Y_-1" source="0GsFUnJgfykosFsevX-u-0" target="0GsFUnJgfykosFsevX-u-2" edge="1"><mxGeometry relative="1" as="geometry"/></mxCell><mxCell id="0GsFUnJgfykosFsevX-u-23" value="0.26" style="edgeLabel;html=1;align=center;verticalAlign=middle;resizable=0;points=[];fontSize=15;" parent="0GsFUnJgfykosFsevX-u-8" vertex="1" connectable="0"><mxGeometry x="-0.434" y="-2" relative="1" as="geometry"><mxPoint x="2" as="offset"/></mxGeometry></mxCell><mxCell id="0GsFUnJgfykosFsevX-u-9" style="edgeStyle=none;rounded=0;orthogonalLoop=1;jettySize=auto;html=1;fontSize=15;exitX=1;exitY=0.5;exitDx=0;exitDy=0;" parent="Ct5_iY6TGk_AIZCy85Y_-1" source="0GsFUnJgfykosFsevX-u-0" target="0GsFUnJgfykosFsevX-u-4" edge="1"><mxGeometry relative="1" as="geometry"><mxPoint x="389" y="120" as="sourcePoint"/></mxGeometry></mxCell><mxCell id="0GsFUnJgfykosFsevX-u-24" value="0.38" style="edgeLabel;html=1;align=center;verticalAlign=middle;resizable=0;points=[];fontSize=15;" parent="0GsFUnJgfykosFsevX-u-9" vertex="1" connectable="0"><mxGeometry x="-0.1855" y="1" relative="1" as="geometry"><mxPoint as="offset"/></mxGeometry></mxCell><mxCell id="0GsFUnJgfykosFsevX-u-0" value="&lt;font style=&quot;font-size: 15px&quot;&gt;0&lt;/font&gt;" style="ellipse;whiteSpace=wrap;html=1;aspect=fixed;" parent="Ct5_iY6TGk_AIZCy85Y_-1" vertex="1"><mxGeometry x="319" y="90" width="60" height="60" as="geometry"/></mxCell><mxCell id="0GsFUnJgfykosFsevX-u-10" style="rounded=0;orthogonalLoop=1;jettySize=auto;html=1;exitX=0;exitY=1;exitDx=0;exitDy=0;fontSize=15;entryX=0.817;entryY=0.01;entryDx=0;entryDy=0;entryPerimeter=0;" parent="Ct5_iY6TGk_AIZCy85Y_-1" source="0GsFUnJgfykosFsevX-u-1" target="0GsFUnJgfykosFsevX-u-3" edge="1"><mxGeometry relative="1" as="geometry"/></mxCell><mxCell id="0GsFUnJgfykosFsevX-u-26" value="0.29" style="edgeLabel;html=1;align=center;verticalAlign=middle;resizable=0;points=[];fontSize=15;" parent="0GsFUnJgfykosFsevX-u-10" vertex="1" connectable="0"><mxGeometry x="0.3899" y="2" relative="1" as="geometry"><mxPoint x="4" y="-14" as="offset"/></mxGeometry></mxCell><mxCell id="0GsFUnJgfykosFsevX-u-1" value="&lt;font style=&quot;font-size: 15px&quot;&gt;1&lt;/font&gt;" style="ellipse;whiteSpace=wrap;html=1;aspect=fixed;" parent="Ct5_iY6TGk_AIZCy85Y_-1" vertex="1"><mxGeometry x="229" y="190" width="60" height="60" as="geometry"/></mxCell><mxCell id="0GsFUnJgfykosFsevX-u-11" style="edgeStyle=none;rounded=0;orthogonalLoop=1;jettySize=auto;html=1;exitX=0.5;exitY=1;exitDx=0;exitDy=0;fontSize=15;" parent="Ct5_iY6TGk_AIZCy85Y_-1" source="0GsFUnJgfykosFsevX-u-2" target="0GsFUnJgfykosFsevX-u-7" edge="1"><mxGeometry relative="1" as="geometry"/></mxCell><mxCell id="0GsFUnJgfykosFsevX-u-27" value="0.34" style="edgeLabel;html=1;align=center;verticalAlign=middle;resizable=0;points=[];fontSize=15;" parent="0GsFUnJgfykosFsevX-u-11" vertex="1" connectable="0"><mxGeometry x="-0.4346" y="1" relative="1" as="geometry"><mxPoint y="10" as="offset"/></mxGeometry></mxCell><mxCell id="0GsFUnJgfykosFsevX-u-2" value="&lt;font style=&quot;font-size: 15px&quot;&gt;2&lt;/font&gt;" style="ellipse;whiteSpace=wrap;html=1;aspect=fixed;" parent="Ct5_iY6TGk_AIZCy85Y_-1" vertex="1"><mxGeometry x="429" y="290" width="60" height="60" as="geometry"/></mxCell><mxCell id="0GsFUnJgfykosFsevX-u-12" style="edgeStyle=none;rounded=0;orthogonalLoop=1;jettySize=auto;html=1;exitX=0.5;exitY=1;exitDx=0;exitDy=0;entryX=0;entryY=0.5;entryDx=0;entryDy=0;fontSize=15;" parent="Ct5_iY6TGk_AIZCy85Y_-1" source="0GsFUnJgfykosFsevX-u-3" target="0GsFUnJgfykosFsevX-u-6" edge="1"><mxGeometry relative="1" as="geometry"/></mxCell><mxCell id="0GsFUnJgfykosFsevX-u-28" value="0.52" style="edgeLabel;html=1;align=center;verticalAlign=middle;resizable=0;points=[];fontSize=15;" parent="0GsFUnJgfykosFsevX-u-12" vertex="1" connectable="0"><mxGeometry x="-0.3395" y="-1" relative="1" as="geometry"><mxPoint as="offset"/></mxGeometry></mxCell><mxCell id="0GsFUnJgfykosFsevX-u-3" value="&lt;font style=&quot;font-size: 15px&quot;&gt;3&lt;/font&gt;" style="ellipse;whiteSpace=wrap;html=1;aspect=fixed;" parent="Ct5_iY6TGk_AIZCy85Y_-1" vertex="1"><mxGeometry x="139" y="300" width="60" height="60" as="geometry"/></mxCell><mxCell id="0GsFUnJgfykosFsevX-u-13" style="edgeStyle=none;rounded=0;orthogonalLoop=1;jettySize=auto;html=1;exitX=1;exitY=0.5;exitDx=0;exitDy=0;entryX=0.5;entryY=0;entryDx=0;entryDy=0;fontSize=15;fillColor=#f8cecc;strokeColor=#b85450;" parent="Ct5_iY6TGk_AIZCy85Y_-1" source="0GsFUnJgfykosFsevX-u-4" target="0GsFUnJgfykosFsevX-u-5" edge="1"><mxGeometry relative="1" as="geometry"/></mxCell><mxCell id="0GsFUnJgfykosFsevX-u-29" value="0.35" style="edgeLabel;html=1;align=center;verticalAlign=middle;resizable=0;points=[];fontSize=15;" parent="0GsFUnJgfykosFsevX-u-13" vertex="1" connectable="0"><mxGeometry x="0.3312" y="2" relative="1" as="geometry"><mxPoint as="offset"/></mxGeometry></mxCell><mxCell id="0GsFUnJgfykosFsevX-u-4" value="&lt;font style=&quot;font-size: 15px&quot;&gt;4&lt;/font&gt;" style="ellipse;whiteSpace=wrap;html=1;aspect=fixed;" parent="Ct5_iY6TGk_AIZCy85Y_-1" vertex="1"><mxGeometry x="489" y="90" width="60" height="60" as="geometry"/></mxCell><mxCell id="0GsFUnJgfykosFsevX-u-14" style="edgeStyle=none;rounded=0;orthogonalLoop=1;jettySize=auto;html=1;exitX=-0.007;exitY=0.31;exitDx=0;exitDy=0;entryX=1;entryY=0.5;entryDx=0;entryDy=0;fontSize=15;exitPerimeter=0;" parent="Ct5_iY6TGk_AIZCy85Y_-1" source="0GsFUnJgfykosFsevX-u-5" target="0GsFUnJgfykosFsevX-u-1" edge="1"><mxGeometry relative="1" as="geometry"/></mxCell><mxCell id="0GsFUnJgfykosFsevX-u-30" value="0.32" style="edgeLabel;html=1;align=center;verticalAlign=middle;resizable=0;points=[];fontSize=15;" parent="0GsFUnJgfykosFsevX-u-14" vertex="1" connectable="0"><mxGeometry x="-0.1859" y="-3" relative="1" as="geometry"><mxPoint as="offset"/></mxGeometry></mxCell><mxCell id="0GsFUnJgfykosFsevX-u-15" style="edgeStyle=none;rounded=0;orthogonalLoop=1;jettySize=auto;html=1;exitX=0;exitY=0;exitDx=0;exitDy=0;entryX=0.793;entryY=0.983;entryDx=0;entryDy=0;fontSize=15;entryPerimeter=0;" parent="Ct5_iY6TGk_AIZCy85Y_-1" source="0GsFUnJgfykosFsevX-u-5" target="0GsFUnJgfykosFsevX-u-4" edge="1"><mxGeometry relative="1" as="geometry"/></mxCell><mxCell id="0GsFUnJgfykosFsevX-u-31" value="0.66" style="edgeLabel;html=1;align=center;verticalAlign=middle;resizable=0;points=[];fontSize=15;" parent="0GsFUnJgfykosFsevX-u-15" vertex="1" connectable="0"><mxGeometry x="0.3341" y="1" relative="1" as="geometry"><mxPoint as="offset"/></mxGeometry></mxCell><mxCell id="0GsFUnJgfykosFsevX-u-16" style="edgeStyle=none;rounded=0;orthogonalLoop=1;jettySize=auto;html=1;exitX=0.5;exitY=1;exitDx=0;exitDy=0;entryX=1;entryY=0.323;entryDx=0;entryDy=0;entryPerimeter=0;fontSize=15;fillColor=#f8cecc;strokeColor=#b85450;" parent="Ct5_iY6TGk_AIZCy85Y_-1" source="0GsFUnJgfykosFsevX-u-5" target="0GsFUnJgfykosFsevX-u-7" edge="1"><mxGeometry relative="1" as="geometry"/></mxCell><mxCell id="0GsFUnJgfykosFsevX-u-32" value="0.28" style="edgeLabel;html=1;align=center;verticalAlign=middle;resizable=0;points=[];fontSize=15;" parent="0GsFUnJgfykosFsevX-u-16" vertex="1" connectable="0"><mxGeometry x="-0.3382" y="2" relative="1" as="geometry"><mxPoint as="offset"/></mxGeometry></mxCell><mxCell id="0GsFUnJgfykosFsevX-u-5" value="&lt;font style=&quot;font-size: 15px&quot;&gt;5&lt;/font&gt;" style="ellipse;whiteSpace=wrap;html=1;aspect=fixed;" parent="Ct5_iY6TGk_AIZCy85Y_-1" vertex="1"><mxGeometry x="599" y="270" width="60" height="60" as="geometry"/></mxCell><mxCell id="0GsFUnJgfykosFsevX-u-17" style="edgeStyle=none;rounded=0;orthogonalLoop=1;jettySize=auto;html=1;exitX=0;exitY=0;exitDx=0;exitDy=0;entryX=0;entryY=1;entryDx=0;entryDy=0;fontSize=15;" parent="Ct5_iY6TGk_AIZCy85Y_-1" source="0GsFUnJgfykosFsevX-u-6" target="0GsFUnJgfykosFsevX-u-0" edge="1"><mxGeometry relative="1" as="geometry"/></mxCell><mxCell id="0GsFUnJgfykosFsevX-u-33" value="0.58" style="edgeLabel;html=1;align=center;verticalAlign=middle;resizable=0;points=[];fontSize=15;" parent="0GsFUnJgfykosFsevX-u-17" vertex="1" connectable="0"><mxGeometry x="-0.1021" y="-1" relative="1" as="geometry"><mxPoint as="offset"/></mxGeometry></mxCell><mxCell id="0GsFUnJgfykosFsevX-u-18" style="edgeStyle=none;rounded=0;orthogonalLoop=1;jettySize=auto;html=1;exitX=1;exitY=0.5;exitDx=0;exitDy=0;entryX=0;entryY=1;entryDx=0;entryDy=0;fontSize=15;" parent="Ct5_iY6TGk_AIZCy85Y_-1" source="0GsFUnJgfykosFsevX-u-6" target="0GsFUnJgfykosFsevX-u-2" edge="1"><mxGeometry relative="1" as="geometry"/></mxCell><mxCell id="0GsFUnJgfykosFsevX-u-34" value="0.4" style="edgeLabel;html=1;align=center;verticalAlign=middle;resizable=0;points=[];fontSize=15;" parent="0GsFUnJgfykosFsevX-u-18" vertex="1" connectable="0"><mxGeometry x="-0.3893" y="-4" relative="1" as="geometry"><mxPoint as="offset"/></mxGeometry></mxCell><mxCell id="0GsFUnJgfykosFsevX-u-19" style="edgeStyle=none;rounded=0;orthogonalLoop=1;jettySize=auto;html=1;exitX=0.5;exitY=0;exitDx=0;exitDy=0;entryX=0;entryY=1;entryDx=0;entryDy=0;fontSize=15;" parent="Ct5_iY6TGk_AIZCy85Y_-1" source="0GsFUnJgfykosFsevX-u-6" target="0GsFUnJgfykosFsevX-u-4" edge="1"><mxGeometry relative="1" as="geometry"/></mxCell><mxCell id="0GsFUnJgfykosFsevX-u-35" value="0.93" style="edgeLabel;html=1;align=center;verticalAlign=middle;resizable=0;points=[];fontSize=15;" parent="0GsFUnJgfykosFsevX-u-19" vertex="1" connectable="0"><mxGeometry x="-0.3108" relative="1" as="geometry"><mxPoint as="offset"/></mxGeometry></mxCell><mxCell id="0GsFUnJgfykosFsevX-u-6" value="&lt;font style=&quot;font-size: 15px&quot;&gt;6&lt;/font&gt;" style="ellipse;whiteSpace=wrap;html=1;aspect=fixed;" parent="Ct5_iY6TGk_AIZCy85Y_-1" vertex="1"><mxGeometry x="289" y="440" width="60" height="60" as="geometry"/></mxCell><mxCell id="0GsFUnJgfykosFsevX-u-20" style="edgeStyle=none;rounded=0;orthogonalLoop=1;jettySize=auto;html=1;exitX=0;exitY=0;exitDx=0;exitDy=0;entryX=1.013;entryY=0.65;entryDx=0;entryDy=0;entryPerimeter=0;fontSize=15;" parent="Ct5_iY6TGk_AIZCy85Y_-1" source="0GsFUnJgfykosFsevX-u-7" target="0GsFUnJgfykosFsevX-u-3" edge="1"><mxGeometry relative="1" as="geometry"/></mxCell><mxCell id="0GsFUnJgfykosFsevX-u-36" value="0.39" style="edgeLabel;html=1;align=center;verticalAlign=middle;resizable=0;points=[];fontSize=15;" parent="0GsFUnJgfykosFsevX-u-20" vertex="1" connectable="0"><mxGeometry x="0.5926" y="1" relative="1" as="geometry"><mxPoint as="offset"/></mxGeometry></mxCell><mxCell id="0GsFUnJgfykosFsevX-u-21" style="edgeStyle=none;rounded=0;orthogonalLoop=1;jettySize=auto;html=1;exitX=0.707;exitY=0.043;exitDx=0;exitDy=0;entryX=0.5;entryY=1;entryDx=0;entryDy=0;fontSize=15;exitPerimeter=0;fillColor=#f8cecc;strokeColor=#b85450;" parent="Ct5_iY6TGk_AIZCy85Y_-1" source="0GsFUnJgfykosFsevX-u-7" target="0GsFUnJgfykosFsevX-u-4" edge="1"><mxGeometry relative="1" as="geometry"/></mxCell><mxCell id="0GsFUnJgfykosFsevX-u-37" value="-3.28" style="edgeLabel;html=1;align=center;verticalAlign=middle;resizable=0;points=[];fontSize=15;" parent="0GsFUnJgfykosFsevX-u-21" vertex="1" connectable="0"><mxGeometry x="-0.4289" y="-1" relative="1" as="geometry"><mxPoint as="offset"/></mxGeometry></mxCell><mxCell id="0GsFUnJgfykosFsevX-u-7" value="&lt;font style=&quot;font-size: 15px&quot;&gt;7&lt;/font&gt;" style="ellipse;whiteSpace=wrap;html=1;aspect=fixed;" parent="Ct5_iY6TGk_AIZCy85Y_-1" vertex="1"><mxGeometry x="459" y="420" width="60" height="60" as="geometry"/></mxCell></root></mxGraphModel></diagram></mxfile>